<mxfile host="app.diagrams.net" modified="2024-06-10T12:04:35.068Z" agent="Mozilla/5.0 (X11; Linux x86_64; rv:122.0) Gecko/20100101 Firefox/122.0" etag="0tpRgQRbO-8tZAq9sgfI" version="24.5.2" type="device">
  <diagram name="Page-1" id="PmaLvv--wLHYzBkFVZ5g">
    <mxGraphModel dx="1807" dy="656" grid="1" gridSize="10" guides="1" tooltips="1" connect="1" arrows="1" fold="1" page="1" pageScale="1" pageWidth="850" pageHeight="1100" math="0" shadow="0">
      <root>
        <mxCell id="0" />
        <mxCell id="1" parent="0" />
        <mxCell id="sftmzMtyflJe7RCJyRi7-1" value="Labyrinth&lt;br&gt;(Gazebo)" style="rounded=1;whiteSpace=wrap;html=1;" vertex="1" parent="1">
          <mxGeometry x="120" y="330" width="120" height="60" as="geometry" />
        </mxCell>
        <mxCell id="sftmzMtyflJe7RCJyRi7-2" value="Labyrinth&lt;br&gt;(Memory)" style="rounded=1;whiteSpace=wrap;html=1;" vertex="1" parent="1">
          <mxGeometry x="330" y="330" width="120" height="60" as="geometry" />
        </mxCell>
        <mxCell id="sftmzMtyflJe7RCJyRi7-3" value="" style="shape=flexArrow;endArrow=classic;startArrow=classic;html=1;rounded=0;" edge="1" parent="1" source="sftmzMtyflJe7RCJyRi7-1" target="sftmzMtyflJe7RCJyRi7-2">
          <mxGeometry width="100" height="100" relative="1" as="geometry">
            <mxPoint x="160" y="500" as="sourcePoint" />
            <mxPoint x="260" y="400" as="targetPoint" />
          </mxGeometry>
        </mxCell>
        <mxCell id="sftmzMtyflJe7RCJyRi7-9" value="Controller&lt;br&gt;&lt;br&gt;&lt;br&gt;&lt;br&gt;&lt;div&gt;&lt;br/&gt;&lt;/div&gt;" style="ellipse;whiteSpace=wrap;html=1;" vertex="1" parent="1">
          <mxGeometry x="170" y="480" width="225" height="150" as="geometry" />
        </mxCell>
        <mxCell id="sftmzMtyflJe7RCJyRi7-7" value="" style="endArrow=classic;html=1;rounded=0;" edge="1" parent="1" source="sftmzMtyflJe7RCJyRi7-2" target="sftmzMtyflJe7RCJyRi7-32">
          <mxGeometry width="50" height="50" relative="1" as="geometry">
            <mxPoint x="320" y="450" as="sourcePoint" />
            <mxPoint x="403.8656476364108" y="450.2096062902285" as="targetPoint" />
          </mxGeometry>
        </mxCell>
        <mxCell id="sftmzMtyflJe7RCJyRi7-11" value="Navigation&lt;br&gt;&lt;font style=&quot;font-size: 8px;&quot;&gt;(Regelungstechnik)&lt;/font&gt;" style="ellipse;whiteSpace=wrap;html=1;" vertex="1" parent="1">
          <mxGeometry x="-160" y="450" width="120" height="80" as="geometry" />
        </mxCell>
        <mxCell id="sftmzMtyflJe7RCJyRi7-29" value="" style="endArrow=classic;html=1;rounded=0;" edge="1" parent="1" source="sftmzMtyflJe7RCJyRi7-41" target="sftmzMtyflJe7RCJyRi7-11">
          <mxGeometry width="50" height="50" relative="1" as="geometry">
            <mxPoint x="-100" y="410" as="sourcePoint" />
            <mxPoint x="-230" y="560" as="targetPoint" />
          </mxGeometry>
        </mxCell>
        <mxCell id="sftmzMtyflJe7RCJyRi7-30" value="" style="endArrow=classic;html=1;rounded=0;" edge="1" parent="1" source="sftmzMtyflJe7RCJyRi7-11" target="sftmzMtyflJe7RCJyRi7-42">
          <mxGeometry width="50" height="50" relative="1" as="geometry">
            <mxPoint x="-290" y="590" as="sourcePoint" />
            <mxPoint x="-201.12584800450736" y="470.4689299424133" as="targetPoint" />
          </mxGeometry>
        </mxCell>
        <mxCell id="sftmzMtyflJe7RCJyRi7-32" value="Pathfinding Algorithmus" style="rounded=0;whiteSpace=wrap;html=1;" vertex="1" parent="1">
          <mxGeometry x="290" y="560" width="80" height="40" as="geometry" />
        </mxCell>
        <mxCell id="sftmzMtyflJe7RCJyRi7-33" value="rob_move&lt;br&gt;(Action)&lt;br&gt;go_forward()&lt;br&gt;turn_right()" style="ellipse;shape=cloud;whiteSpace=wrap;html=1;" vertex="1" parent="1">
          <mxGeometry x="-20" y="560" width="120" height="80" as="geometry" />
        </mxCell>
        <mxCell id="sftmzMtyflJe7RCJyRi7-39" value="" style="endArrow=classic;startArrow=classic;html=1;rounded=0;" edge="1" parent="1" source="sftmzMtyflJe7RCJyRi7-33" target="sftmzMtyflJe7RCJyRi7-9">
          <mxGeometry width="50" height="50" relative="1" as="geometry">
            <mxPoint y="800" as="sourcePoint" />
            <mxPoint x="50" y="750" as="targetPoint" />
          </mxGeometry>
        </mxCell>
        <mxCell id="sftmzMtyflJe7RCJyRi7-40" value="" style="endArrow=classic;startArrow=classic;html=1;rounded=0;" edge="1" parent="1" source="sftmzMtyflJe7RCJyRi7-33" target="sftmzMtyflJe7RCJyRi7-11">
          <mxGeometry width="50" height="50" relative="1" as="geometry">
            <mxPoint x="-180" y="700" as="sourcePoint" />
            <mxPoint x="-130" y="650" as="targetPoint" />
          </mxGeometry>
        </mxCell>
        <mxCell id="sftmzMtyflJe7RCJyRi7-41" value="&lt;div&gt;odom&lt;/div&gt;&lt;div&gt;(Position + Rotation)&lt;br&gt;&lt;/div&gt;" style="ellipse;shape=cloud;whiteSpace=wrap;html=1;" vertex="1" parent="1">
          <mxGeometry x="-100" y="310" width="120" height="80" as="geometry" />
        </mxCell>
        <mxCell id="sftmzMtyflJe7RCJyRi7-42" value="cmd_vel&lt;br&gt;(Fahrwerk)" style="ellipse;shape=cloud;whiteSpace=wrap;html=1;" vertex="1" parent="1">
          <mxGeometry x="-230" y="310" width="120" height="80" as="geometry" />
        </mxCell>
      </root>
    </mxGraphModel>
  </diagram>
</mxfile>
